<svg width="256" height="256" viewBox="0 0 256 256" fill="none" xmlns="http://www.w3.org/2000/svg">
  <rect width="256" height="256" rx="72" fill="url(#paint0_linear_1_2)"/>
  <rect x="32" y="32" width="192" height="192" rx="52" fill="white" fill-opacity="0.16"/>
  <path d="M76 182V74H125.064C136.248 74 145.752 75.904 153.576 79.712C161.496 83.52 167.544 88.944 171.72 95.984C175.992 103.024 178.128 111.328 178.128 120.896C178.128 130.368 175.992 138.64 171.72 145.712C167.544 152.688 161.496 158.08 153.576 161.888C145.752 165.696 136.248 167.6 125.064 167.6H101.136V182H76ZM101.136 147.728H123.048C132.232 147.728 139.208 145.456 143.976 140.912C148.84 136.368 151.272 129.696 151.272 120.896C151.272 111.904 148.84 105.136 143.976 100.592C139.208 96.048 132.232 93.776 123.048 93.776H101.136V147.728Z" fill="white"/>
  <defs>
    <linearGradient id="paint0_linear_1_2" x1="31" y1="21" x2="227" y2="235" gradientUnits="userSpaceOnUse">
      <stop stop-color="#0F766E"/>
      <stop offset="1" stop-color="#FF7A59"/>
    </linearGradient>
  </defs>
</svg>